Coordinates
version=1
nRows=42
nColumns=38
inDegrees=no

Units are S.I. units (second, meters, Newtons, ...)
If the header above contains a line with 'inDegrees', this indicates whether rotational values are in degrees (yes) or radians (no).

endheader
time	pelvis_tilt	pelvis_list	pelvis_rotation	pelvis_tx	pelvis_ty	pelvis_tz	hip_flexion_r	hip_adduction_r	hip_rotation_r	knee_angle_r	ankle_angle_r	subtalar_angle_r	mtp_angle_r	hip_flexion_l	hip_adduction_l	hip_rotation_l	knee_angle_l	ankle_angle_l	subtalar_angle_l	mtp_angle_l	lumbar_extension	lumbar_bending	lumbar_rotation	arm_flex_r	arm_add_r	arm_rot_r	elbow_flex_r	pro_sup_r	wrist_flex_r	wrist_dev_r	arm_flex_l	arm_add_l	arm_rot_l	elbow_flex_l	pro_sup_l	wrist_flex_l	wrist_dev_l
0	1.90253	1.44616	-0.395156	0.725245	-0.402208	0.97195	-0.0733169	0.104255	-0.2234	0.172038	0.123069	0	0	-0.175694	-0.113763	-0.233296	0	0.0861013	0	0	-0.0621509	0.145902	0.0292754	-0.147718	-0.169371	-0.014657	0.716139	0	0	0	-0.0792311	-0.143882	0.469545	0.623574	1.15822	0	0
0.01	1.89668	1.44648	-0.387908	0.725242	-0.40197	0.97191	-0.0729	0.10437	-0.225588	0.171663	0.123168	0	0	-0.174636	-0.114124	-0.232867	0	0.0862505	0	0	-0.0609662	0.145705	0.0282339	-0.147125	-0.167975	-0.0190199	0.714042	0	0	0	-0.0790882	-0.144426	0.471555	0.622952	1.15783	0	0
0.02	1.88594	1.45126	-0.379111	0.725453	-0.402064	0.971394	-0.0543946	0.0925736	-0.257023	0.205451	0.141711	0	0	-0.17174	-0.109487	-0.232701	0	0.086011	0	0	-0.0579858	0.141087	0.0295724	-0.147569	-0.167069	-0.0201676	0.715339	0	0	0	-0.0798653	-0.145617	0.471654	0.624726	1.15764	0	0
0.03	1.8775	1.45289	-0.370949	0.725468	-0.402064	0.971236	-0.0499155	0.090115	-0.263246	0.212165	0.146198	0	0	-0.17009	-0.108125	-0.232017	0	0.0857662	0	0	-0.0563082	0.139908	0.0295399	-0.147662	-0.166791	-0.0205742	0.716159	0	0	0	-0.0802043	-0.145743	0.471818	0.625032	1.15731	0	0
0.04	1.87659	1.45314	-0.369569	0.725446	-0.401926	0.971213	-0.0498109	0.0901898	-0.26372	0.212269	0.146483	0	0	-0.170037	-0.107954	-0.23142	0	0.0856393	0	0	-0.0557005	0.139785	0.0287109	-0.147566	-0.166672	-0.0202338	0.716919	0	0	0	-0.0807124	-0.145698	0.471748	0.625034	1.15694	0	0
0.05	1.87849	1.45286	-0.370869	0.725432	-0.401783	0.971229	-0.050905	0.0910049	-0.262666	0.210826	0.145689	0	0	-0.170545	-0.108206	-0.231142	0	0.0856231	0	0	-0.0556592	0.140044	0.0277793	-0.147429	-0.166841	-0.0188229	0.718105	0	0	0	-0.0811875	-0.145561	0.471295	0.625037	1.15601	0	0
0.06	1.88009	1.45256	-0.372118	0.725458	-0.401698	0.971247	-0.0517493	0.0917394	-0.261509	0.209743	0.14505	0	0	-0.171037	-0.108466	-0.230805	0	0.0853955	0	0	-0.0556271	0.140303	0.0267261	-0.146545	-0.166835	-0.0172699	0.718534	0	0	0	-0.0817449	-0.145448	0.470568	0.625102	1.15548	0	0
0.07	1.88123	1.45233	-0.373015	0.725494	-0.40161	0.971255	-0.0524243	0.0922975	-0.260773	0.208919	0.144584	0	0	-0.171471	-0.108705	-0.23038	0	0.0851007	0	0	-0.0555648	0.140506	0.0260829	-0.146007	-0.166485	-0.0166346	0.719371	0	0	0	-0.0821371	-0.145423	0.470296	0.625255	1.15514	0	0
0.08	1.88207	1.45232	-0.373352	0.725518	-0.40145	0.971252	-0.0531151	0.0925652	-0.260847	0.208059	0.144339	0	0	-0.171744	-0.108828	-0.230249	0	0.0852411	0	0	-0.0551341	0.140441	0.0253235	-0.145549	-0.166107	-0.0163318	0.718879	0	0	0	-0.0825634	-0.145456	0.470322	0.625275	1.15481	0	0
0.09	1.88356	1.45236	-0.374217	0.725528	-0.401285	0.971258	-0.0538721	0.0926786	-0.261358	0.207236	0.144131	0	0	-0.17194	-0.108888	-0.230535	0	0.0856046	0	0	-0.0547211	0.140272	0.024504	-0.145057	-0.165802	-0.0164184	0.717513	0	0	0	-0.0828792	-0.145443	0.470541	0.625138	1.15466	0	0
0.1	1.8849	1.45221	-0.375325	0.725578	-0.401174	0.97127	-0.0545323	0.0929657	-0.261422	0.206578	0.143878	0	0	-0.172474	-0.108998	-0.230045	0	0.0853529	0	0	-0.0545686	0.140314	0.0240915	-0.144554	-0.165609	-0.0157978	0.717131	0	0	0	-0.0829556	-0.145259	0.470404	0.624649	1.15493	0	0
0.11	1.88414	1.45207	-0.375022	0.725662	-0.401172	0.971255	-0.0545162	0.0932691	-0.260604	0.206506	0.143815	0	0	-0.172893	-0.10904	-0.229579	0	0.0849014	0	0	-0.0545592	0.140548	0.0244284	-0.143855	-0.165486	-0.0149191	0.717401	0	0	0	-0.0828163	-0.14496	0.46972	0.623948	1.15462	0	0
0.12	1.88371	1.45188	-0.375336	0.72577	-0.401209	0.971236	-0.0545244	0.0935913	-0.259335	0.206469	0.143701	0	0	-0.173487	-0.109052	-0.229161	0	0.0843365	0	0	-0.0547762	0.140761	0.0252069	-0.143044	-0.16548	-0.0140582	0.716547	0	0	0	-0.0824927	-0.144561	0.468539	0.6229	1.15325	0	0
0.13	1.88179	1.45167	-0.372253	0.725798	-0.400984	0.971205	-0.0553165	0.09421	-0.2606	0.205134	0.143438	0	0	-0.173755	-0.109555	-0.227697	0	0.0840395	0	0	-0.0537614	0.140952	0.0239923	-0.142628	-0.165092	-0.0132883	0.714582	0	0	0	-0.0829329	-0.144616	0.468746	0.623073	1.15342	0	0
0.14	1.88176	1.45994	-0.362919	0.72509	-0.402586	0.971381	-0.0466336	0.0884889	-0.263815	0.212217	0.142136	0	0	-0.15693	-0.10766	-0.239867	0	0.0756227	0	0	-0.0522336	0.132179	0.0154363	-0.137284	-0.162438	-0.0123421	0.707414	0	0	0	-0.0790723	-0.145227	0.468209	0.620144	1.15512	0	0
0.15	1.87737	1.45219	-0.366578	0.725928	-0.400725	0.971172	-0.0551052	0.094181	-0.262803	0.20485	0.143853	0	0	-0.173063	-0.109672	-0.225659	0	0.08339	0	0	-0.051761	0.140346	0.0221984	-0.141122	-0.16421	-0.0113505	0.710834	0	0	0	-0.0835294	-0.14456	0.468493	0.62248	1.15666	0	0
0.16	1.88368	1.45156	-0.372677	0.72601	-0.400671	0.971245	-0.056805	0.0949128	-0.261849	0.20345	0.143021	0	0	-0.173742	-0.110273	-0.226119	0	0.0841423	0	0	-0.0526367	0.140609	0.0222339	-0.141098	-0.164446	-0.00949611	0.711982	0	0	0	-0.0832839	-0.144595	0.468594	0.622352	1.15833	0	0
0.17	1.8832	1.45176	-0.372464	0.726121	-0.400625	0.971253	-0.056819	0.0948428	-0.261461	0.203334	0.142979	0	0	-0.173257	-0.110298	-0.22704	0	0.0846729	0	0	-0.0522874	0.140267	0.0226456	-0.140747	-0.164376	-0.00825775	0.7115	0	0	0	-0.083265	-0.144562	0.468023	0.62218	1.15863	0	0
0.18	1.88233	1.45215	-0.372052	0.726241	-0.400558	0.971256	-0.0567431	0.0946247	-0.260486	0.203143	0.142937	0	0	-0.172848	-0.110079	-0.22799	0	0.0849491	0	0	-0.051829	0.139738	0.0234078	-0.140494	-0.164179	-0.00762011	0.710735	0	0	0	-0.083264	-0.144557	0.46731	0.6223	1.15772	0	0
0.19	1.87931	1.45234	-0.368331	0.726304	-0.400351	0.971256	-0.0569318	0.0948152	-0.261082	0.202353	0.142753	0	0	-0.172364	-0.110314	-0.227475	0	0.0851217	0	0	-0.0506674	0.139495	0.0230592	-0.140701	-0.163603	-0.00835624	0.709776	0	0	0	-0.0835089	-0.14464	0.467233	0.622323	1.15725	0	0
0.2	1.87646	1.45257	-0.364849	0.726373	-0.4002	0.971248	-0.0568473	0.0948892	-0.261788	0.202012	0.142714	0	0	-0.17185	-0.110472	-0.226861	0	0.085244	0	0	-0.0496953	0.139146	0.0228617	-0.140938	-0.163008	-0.00937147	0.709196	0	0	0	-0.083534	-0.144784	0.467731	0.622112	1.15783	0	0
0.21	1.87452	1.45305	-0.362985	0.726469	-0.400163	0.971224	-0.0563214	0.0945676	-0.261593	0.202366	0.142892	0	0	-0.171352	-0.110222	-0.226777	0	0.0852616	0	0	-0.0492032	0.138469	0.023543	-0.141126	-0.162505	-0.0104144	0.70907	0	0	0	-0.0831721	-0.14493	0.468461	0.621737	1.15902	0	0
0.22	1.87246	1.45368	-0.361752	0.726586	-0.400199	0.971186	-0.0553291	0.0939706	-0.260622	0.203371	0.143297	0	0	-0.170886	-0.109658	-0.227242	0	0.0850762	0	0	-0.0489341	0.137679	0.024945	-0.141118	-0.162265	-0.0107805	0.709178	0	0	0	-0.0827492	-0.144956	0.468257	0.621608	1.15919	0	0
0.23	1.87055	1.45407	-0.359944	0.726655	-0.400147	0.971163	-0.0548077	0.0936892	-0.260293	0.203796	0.143439	0	0	-0.170589	-0.109398	-0.227004	0	0.084903	0	0	-0.0484842	0.137177	0.0257601	-0.141218	-0.162069	-0.0109215	0.709177	0	0	0	-0.0824688	-0.144959	0.468097	0.621423	1.15895	0	0
0.24	1.86741	1.4543	-0.355887	0.726679	-0.399954	0.971147	-0.0546509	0.0937253	-0.261208	0.203669	0.14355	0	0	-0.170337	-0.109477	-0.225715	0	0.0846537	0	0	-0.0474442	0.1368	0.0256386	-0.14206	-0.161757	-0.0115678	0.7088	0	0	0	-0.0824755	-0.145089	0.468456	0.621139	1.15884	0	0
0.25	1.86397	1.46277	-0.343344	0.725944	-0.401476	0.971261	-0.0452965	0.0875712	-0.264844	0.211654	0.142945	0	0	-0.154454	-0.106996	-0.238824	0	0.0766201	0	0	-0.0503613	0.128375	0.0329666	-0.150626	-0.153934	-0.0503092	0.717849	0	0	0	-0.0681116	-0.146462	0.486789	0.614657	1.15961	0	0
0.26	1.87371	1.45418	-0.361073	0.726708	-0.39967	0.971131	-0.0555066	0.0935372	-0.263211	0.204304	0.144539	0	0	-0.171158	-0.109637	-0.224765	0	0.0848598	0	0	-0.0505399	0.137332	0.0355431	-0.151548	-0.157081	-0.0433962	0.719203	0	0	0	-0.0752195	-0.146007	0.484186	0.61848	1.15869	0	0
0.27	1.88241	1.45355	-0.36957	0.726695	-0.399616	0.971168	-0.0569648	0.0938499	-0.262945	0.204023	0.144344	0	0	-0.172212	-0.110001	-0.225395	0	0.085688	0	0	-0.0515776	0.137811	0.0345791	-0.151015	-0.158389	-0.0386382	0.719256	0	0	0	-0.0759124	-0.145842	0.48252	0.619046	1.15806	0	0
0.28	1.88734	1.4532	-0.374309	0.72667	-0.399543	0.971156	-0.0577446	0.0939391	-0.26306	0.204136	0.144556	0	0	-0.172724	-0.110222	-0.226027	0	0.0864572	0	0	-0.0519178	0.138172	0.0335098	-0.150123	-0.159086	-0.0359995	0.71887	0	0	0	-0.0768804	-0.145786	0.480786	0.619791	1.15734	0	0
0.29	1.89266	1.45292	-0.379466	0.726647	-0.399466	0.971148	-0.0585395	0.0939403	-0.263133	0.204262	0.144859	0	0	-0.173361	-0.110292	-0.226317	0	0.086737	0	0	-0.0523034	0.138392	0.0325559	-0.149314	-0.1598	-0.0335377	0.718174	0	0	0	-0.0776109	-0.145722	0.479828	0.620346	1.15733	0	0
0.3	1.89799	1.45261	-0.38483	0.726652	-0.399402	0.971158	-0.0592637	0.093938	-0.263094	0.204509	0.145092	0	0	-0.174197	-0.110321	-0.226421	0	0.0865231	0	0	-0.0528261	0.138585	0.0319754	-0.149291	-0.160572	-0.0314777	0.718699	0	0	0	-0.0781526	-0.145532	0.478444	0.620589	1.15693	0	0
0.31	1.90216	1.45234	-0.389071	0.726657	-0.399344	0.971166	-0.0598436	0.0939518	-0.26286	0.204707	0.145321	0	0	-0.174904	-0.11036	-0.226724	0	0.0867637	0	0	-0.0532309	0.138691	0.0315436	-0.149476	-0.161405	-0.0297913	0.718614	0	0	0	-0.0785663	-0.145266	0.477345	0.620601	1.15661	0	0
0.32	1.90677	1.45206	-0.393686	0.726626	-0.399297	0.971168	-0.0605516	0.0939489	-0.262689	0.204735	0.145462	0	0	-0.175548	-0.110411	-0.227167	0	0.0872723	0	0	-0.0536938	0.13879	0.0310754	-0.148837	-0.162026	-0.0277827	0.717653	0	0	0	-0.0788475	-0.144913	0.476425	0.620459	1.1568	0	0
0.33	1.90877	1.4518	-0.395647	0.726595	-0.399261	0.971149	-0.0608639	0.0940175	-0.262688	0.204897	0.145576	0	0	-0.175964	-0.110532	-0.227197	0	0.0874932	0	0	-0.0538283	0.138973	0.0306127	-0.148194	-0.162361	-0.0269254	0.716786	0	0	0	-0.0791375	-0.144675	0.475752	0.620525	1.15675	0	0
0.34	1.90954	1.45144	-0.396433	0.726584	-0.399216	0.971136	-0.0612119	0.0943033	-0.262452	0.204659	0.145643	0	0	-0.176446	-0.110792	-0.227063	0	0.0875051	0	0	-0.0538895	0.139261	0.030158	-0.147727	-0.162787	-0.0258461	0.716273	0	0	0	-0.0796709	-0.144672	0.475594	0.620874	1.15785	0	0
0.35	1.91071	1.45099	-0.397773	0.726572	-0.399155	0.971141	-0.0616821	0.0946601	-0.262174	0.204413	0.145608	0	0	-0.177155	-0.111048	-0.226875	0	0.0873978	0	0	-0.0540334	0.139622	0.0301622	-0.147585	-0.163283	-0.0247124	0.716285	0	0	0	-0.0799074	-0.144509	0.475375	0.620812	1.15865	0	0
0.36	1.91315	1.45066	-0.400419	0.726549	-0.399105	0.971153	-0.062194	0.0948028	-0.261991	0.204327	0.145509	0	0	-0.178057	-0.11105	-0.226425	0	0.0868199	0	0	-0.0543996	0.139765	0.0305423	-0.147634	-0.163622	-0.0239442	0.716924	0	0	0	-0.0795415	-0.144028	0.474712	0.620328	1.15852	0	0
0.37	1.91558	1.45033	-0.403115	0.726532	-0.399071	0.971157	-0.0626436	0.0949258	-0.261761	0.204368	0.14554	0	0	-0.17904	-0.111018	-0.226317	0	0.086559	0	0	-0.0550189	0.139871	0.0310157	-0.147792	-0.164022	-0.0233189	0.717549	0	0	0	-0.0794177	-0.143831	0.474004	0.620544	1.15829	0	0
0.38	1.91729	1.45857	-0.397002	0.725776	-0.400789	0.971294	-0.0532199	0.0889439	-0.263689	0.212523	0.144586	0	0	-0.163206	-0.108545	-0.240569	0	0.0788551	0	0	-0.0542383	0.131253	0.0237222	-0.142897	-0.162211	-0.0227554	0.711997	0	0	0	-0.0755994	-0.14434	0.473104	0.617836	1.15964	0	0
0.39	1.91334	1.45027	-0.401567	0.726543	-0.398995	0.971124	-0.0624112	0.0949725	-0.261407	0.204611	0.145808	0	0	-0.179309	-0.110938	-0.226695	0	0.0869121	0	0	-0.0547249	0.139776	0.0312919	-0.147512	-0.164449	-0.0227791	0.716423	0	0	0	-0.0800489	-0.143877	0.473523	0.620886	1.16052	0	0
0.4	1.91326	1.44996	-0.401669	0.726561	-0.398946	0.971141	-0.0629314	0.0953948	-0.26079	0.203837	0.145359	0	0	-0.179534	-0.111198	-0.226838	0	0.0870895	0	0	-0.0548839	0.139884	0.0319154	-0.148332	-0.164664	-0.0236182	0.716932	0	0	0	-0.0796252	-0.143834	0.474358	0.620681	1.16068	0	0
0.41	1.91183	1.44999	-0.400568	0.726576	-0.398906	0.971134	-0.0628367	0.0954037	-0.26062	0.203766	0.145439	0	0	-0.179551	-0.111157	-0.226868	0	0.0868832	0	0	-0.0547754	0.139636	0.0326024	-0.149236	-0.164905	-0.0244159	0.716944	0	0	0	-0.0793236	-0.143855	0.47492	0.620449	1.16061	0	0
